<svg width="47" height="51" viewBox="0 0 47 51" fill="none" xmlns="http://www.w3.org/2000/svg">
    <path d="M17.1169 1.99405C21.0025 -0.24932 25.7898 -0.24932 29.6754 1.99405L40.4227 8.19897C44.3083 10.4423 46.7019 14.5883 46.7019 19.075V31.4849C46.7019 35.9716 44.3083 40.1175 40.4227 42.3609L29.6754 48.5658C25.7898 50.8092 21.0025 50.8092 17.1169 48.5658L6.36962 42.3609C2.48398 40.1175 0.090332 35.9716 0.090332 31.4849V19.075C0.090332 14.5883 2.48398 10.4423 6.36962 8.19897L17.1169 1.99405Z" fill="#E2E9FC"/>
    <mask id="mask0_36_4243" style="mask-type:alpha" maskUnits="userSpaceOnUse" x="0" y="0" width="47" height="51">
    <path d="M17.1169 1.99405C21.0025 -0.24932 25.7898 -0.24932 29.6754 1.99405L40.4227 8.19897C44.3083 10.4423 46.7019 14.5883 46.7019 19.075V31.4849C46.7019 35.9716 44.3083 40.1175 40.4227 42.3609L29.6754 48.5658C25.7898 50.8092 21.0025 50.8092 17.1169 48.5658L6.36962 42.3609C2.48398 40.1175 0.090332 35.9716 0.090332 31.4849V19.075C0.090332 14.5883 2.48398 10.4423 6.36962 8.19897L17.1169 1.99405Z" fill="#C4C4C4"/>
    </mask>
    <g mask="url(#mask0_36_4243)">
    <path d="M-3.82617 38.4907L46.189 9.02953L56.1981 26.0216L6.18294 55.4828L-3.82617 38.4907Z" fill="white" fill-opacity="0.5"/>
    <path d="M-6.62598 23.6631L37.3714 -2.25336L42.0757 5.73289L-1.92172 31.6493L-6.62598 23.6631Z" fill="white" fill-opacity="0.5"/>
    </g>
    <path fill-rule="evenodd" clip-rule="evenodd" d="M39.3014 10.1411L28.5541 3.9362C25.3624 2.09343 21.4299 2.09343 18.2382 3.9362L7.49092 10.1411C4.29915 11.9839 2.33293 15.3895 2.33293 19.075V31.4849C2.33293 35.1704 4.29915 38.576 7.49092 40.4187L18.2382 46.6237C21.4299 48.4664 25.3624 48.4664 28.5541 46.6237L39.3014 40.4187C42.4931 38.576 44.4593 35.1704 44.4593 31.4849V19.075C44.4593 15.3895 42.4931 11.9839 39.3014 10.1411ZM29.6754 1.99405C25.7898 -0.24932 21.0025 -0.24932 17.1169 1.99405L6.36962 8.19897C2.48398 10.4423 0.090332 14.5883 0.090332 19.075V31.4849C0.090332 35.9716 2.48398 40.1175 6.36962 42.3609L17.1169 48.5658C21.0025 50.8092 25.7898 50.8092 29.6754 48.5658L40.4227 42.3609C44.3083 40.1175 46.7019 35.9716 46.7019 31.4849V19.075C46.7019 14.5883 44.3083 10.4423 40.4227 8.19897L29.6754 1.99405Z" fill="#E2E9FC"/>
    <path d="M21.7579 4.07154C22.8681 3.43058 24.2359 3.43058 25.3461 4.07154L40.8875 13.0444C41.9977 13.6854 42.6816 14.8699 42.6816 16.1518V34.0976C42.6816 35.3795 41.9977 36.5641 40.8875 37.205L25.3461 46.1779C24.2359 46.8189 22.8681 46.8189 21.7579 46.1779L6.21645 37.205C5.10626 36.5641 4.42236 35.3795 4.42236 34.0976V16.1518C4.42236 14.8699 5.10626 13.6854 6.21645 13.0444L21.7579 4.07154Z" fill="#EFEFEF"/>
    <path fill-rule="evenodd" clip-rule="evenodd" d="M39.7662 14.9866L24.2248 6.01369C23.8084 5.77333 23.2955 5.77333 22.8792 6.01369L7.33775 14.9866C6.92143 15.2269 6.66497 15.6711 6.66497 16.1518V34.0976C6.66497 34.5783 6.92143 35.0225 7.33775 35.2629L22.8792 44.2357C23.2955 44.4761 23.8084 44.4761 24.2248 44.2357L39.7662 35.2629C40.1825 35.0225 40.439 34.5783 40.439 34.0976V16.1518C40.439 15.6711 40.1825 15.2269 39.7662 14.9866ZM25.3461 4.07154C24.2359 3.43058 22.8681 3.43058 21.7579 4.07154L6.21645 13.0444C5.10626 13.6854 4.42236 14.8699 4.42236 16.1518V34.0976C4.42236 35.3795 5.10626 36.5641 6.21645 37.205L21.7579 46.1779C22.8681 46.8189 24.2359 46.8189 25.3461 46.1779L40.8875 37.205C41.9977 36.5641 42.6816 35.3795 42.6816 34.0976V16.1518C42.6816 14.8699 41.9977 13.6854 40.8875 13.0444L25.3461 4.07154Z" fill="#91B3FA"/>
    </svg>