<svg width="298" height="24" viewBox="0 0 298 24" fill="none" xmlns="http://www.w3.org/2000/svg">
<g opacity="0.85">
<g filter="url(#filter0_i_104_864)">
<path d="M4 6H294V18H4V6Z" fill="#F0F0F0"/>
</g>
<path d="M4 16H149V8H4V16Z" fill="#645D5D" fill-opacity="0.28"/>
<g filter="url(#filter1_i_104_864)">
<path d="M24 12C24 18.6274 18.6274 24 12 24C5.37258 24 0 18.6274 0 12C0 5.37258 5.37258 0 12 0C18.6274 0 24 5.37258 24 12Z" fill="#F0F0F0"/>
</g>
<mask id="mask0_104_864" style="mask-type:alpha" maskUnits="userSpaceOnUse" x="0" y="0" width="24" height="24">
<path d="M24 12C24 18.6274 18.6274 24 12 24C5.37258 24 0 18.6274 0 12C0 5.37258 5.37258 0 12 0C18.6274 0 24 5.37258 24 12Z" fill="#F0F0F0"/>
</mask>
<g mask="url(#mask0_104_864)">
</g>
<rect x="3.89941" y="3.90002" width="16.2007" height="16.2007" rx="8.10035" fill="#FF7F50"/>
<path d="M15.0072 8.9323C15.1498 8.7965 15.3396 8.72143 15.5366 8.72292C15.7335 8.72441 15.9221 8.80235 16.0627 8.94028C16.2033 9.07822 16.2848 9.26537 16.29 9.46224C16.2952 9.65911 16.2237 9.8503 16.0906 9.99547L12.0506 15.0481C11.9811 15.1229 11.8972 15.1829 11.804 15.2246C11.7108 15.2663 11.6102 15.2888 11.5081 15.2906C11.406 15.2925 11.3046 15.2738 11.2099 15.2356C11.1152 15.1974 11.0292 15.1405 10.957 15.0683L8.27782 12.3891C8.20321 12.3196 8.14337 12.2358 8.10186 12.1426C8.06035 12.0495 8.03803 11.9489 8.03624 11.8469C8.03444 11.745 8.05319 11.6437 8.09139 11.5491C8.12958 11.4546 8.18643 11.3687 8.25854 11.2965C8.33066 11.2244 8.41655 11.1676 8.51111 11.1294C8.60567 11.0912 8.70696 11.0724 8.80892 11.0742C8.91089 11.076 9.01145 11.0984 9.1046 11.1399C9.19775 11.1814 9.28159 11.2412 9.35112 11.3158L11.4714 13.4351L14.988 8.95457C14.9943 8.94678 15.001 8.93934 15.0082 8.9323H15.0072Z" fill="white"/>
<g filter="url(#filter2_i_104_864)">
<path d="M161 12C161 18.6274 155.627 24 149 24C142.373 24 137 18.6274 137 12C137 5.37258 142.373 0 149 0C155.627 0 161 5.37258 161 12Z" fill="#F0F0F0"/>
</g>
<mask id="mask1_104_864" style="mask-type:alpha" maskUnits="userSpaceOnUse" x="137" y="0" width="24" height="24">
<path d="M161 12C161 18.6274 155.627 24 149 24C142.373 24 137 18.6274 137 12C137 5.37258 142.373 0 149 0C155.627 0 161 5.37258 161 12Z" fill="#F0F0F0"/>
</mask>
<g mask="url(#mask1_104_864)">
</g>
<rect x="140.899" y="3.90002" width="16.2007" height="16.2007" rx="8.10035" fill="#FF7F50"/>
<rect x="147.062" y="10.0626" width="4.125" height="4.125" rx="2.0625" fill="white"/>
<rect x="147.062" y="10.0626" width="4.125" height="4.125" rx="2.0625" stroke="white" stroke-width="4.125"/>
<g filter="url(#filter3_i_104_864)">
<path d="M298 12C298 18.6274 292.627 24 286 24C279.373 24 274 18.6274 274 12C274 5.37258 279.373 0 286 0C292.627 0 298 5.37258 298 12Z" fill="#F0F0F0"/>
</g>
<mask id="mask2_104_864" style="mask-type:alpha" maskUnits="userSpaceOnUse" x="274" y="0" width="24" height="24">
<path d="M298 12C298 18.6274 292.627 24 286 24C279.373 24 274 18.6274 274 12C274 5.37258 279.373 0 286 0C292.627 0 298 5.37258 298 12Z" fill="#F0F0F0"/>
</mask>
<g mask="url(#mask2_104_864)">
</g>
<rect x="277.899" y="3.90002" width="16.2007" height="16.2007" rx="8.10035" fill="#FF7F50"/>
<rect x="284.062" y="10.0626" width="4.125" height="4.125" rx="2.0625" fill="white"/>
<rect x="284.062" y="10.0626" width="4.125" height="4.125" rx="2.0625" stroke="white" stroke-width="4.125"/>
</g>
<defs>
<filter id="filter0_i_104_864" x="4" y="6" width="290" height="17.8196" filterUnits="userSpaceOnUse" color-interpolation-filters="sRGB">
<feFlood flood-opacity="0" result="BackgroundImageFix"/>
<feBlend mode="normal" in="SourceGraphic" in2="BackgroundImageFix" result="shape"/>
<feColorMatrix in="SourceAlpha" type="matrix" values="0 0 0 0 0 0 0 0 0 0 0 0 0 0 0 0 0 0 127 0" result="hardAlpha"/>
<feOffset dy="5.81956"/>
<feGaussianBlur stdDeviation="2.90978"/>
<feComposite in2="hardAlpha" operator="arithmetic" k2="-1" k3="1"/>
<feColorMatrix type="matrix" values="0 0 0 0 0 0 0 0 0 0 0 0 0 0 0 0 0 0 0.15 0"/>
<feBlend mode="normal" in2="shape" result="effect1_innerShadow_104_864"/>
</filter>
<filter id="filter1_i_104_864" x="0" y="0" width="24" height="29.8196" filterUnits="userSpaceOnUse" color-interpolation-filters="sRGB">
<feFlood flood-opacity="0" result="BackgroundImageFix"/>
<feBlend mode="normal" in="SourceGraphic" in2="BackgroundImageFix" result="shape"/>
<feColorMatrix in="SourceAlpha" type="matrix" values="0 0 0 0 0 0 0 0 0 0 0 0 0 0 0 0 0 0 127 0" result="hardAlpha"/>
<feOffset dy="5.81956"/>
<feGaussianBlur stdDeviation="2.90978"/>
<feComposite in2="hardAlpha" operator="arithmetic" k2="-1" k3="1"/>
<feColorMatrix type="matrix" values="0 0 0 0 0 0 0 0 0 0 0 0 0 0 0 0 0 0 0.25 0"/>
<feBlend mode="normal" in2="shape" result="effect1_innerShadow_104_864"/>
</filter>
<filter id="filter2_i_104_864" x="137" y="0" width="24" height="29.8196" filterUnits="userSpaceOnUse" color-interpolation-filters="sRGB">
<feFlood flood-opacity="0" result="BackgroundImageFix"/>
<feBlend mode="normal" in="SourceGraphic" in2="BackgroundImageFix" result="shape"/>
<feColorMatrix in="SourceAlpha" type="matrix" values="0 0 0 0 0 0 0 0 0 0 0 0 0 0 0 0 0 0 127 0" result="hardAlpha"/>
<feOffset dy="5.81956"/>
<feGaussianBlur stdDeviation="2.90978"/>
<feComposite in2="hardAlpha" operator="arithmetic" k2="-1" k3="1"/>
<feColorMatrix type="matrix" values="0 0 0 0 0 0 0 0 0 0 0 0 0 0 0 0 0 0 0.25 0"/>
<feBlend mode="normal" in2="shape" result="effect1_innerShadow_104_864"/>
</filter>
<filter id="filter3_i_104_864" x="274" y="0" width="24" height="29.8196" filterUnits="userSpaceOnUse" color-interpolation-filters="sRGB">
<feFlood flood-opacity="0" result="BackgroundImageFix"/>
<feBlend mode="normal" in="SourceGraphic" in2="BackgroundImageFix" result="shape"/>
<feColorMatrix in="SourceAlpha" type="matrix" values="0 0 0 0 0 0 0 0 0 0 0 0 0 0 0 0 0 0 127 0" result="hardAlpha"/>
<feOffset dy="5.81956"/>
<feGaussianBlur stdDeviation="2.90978"/>
<feComposite in2="hardAlpha" operator="arithmetic" k2="-1" k3="1"/>
<feColorMatrix type="matrix" values="0 0 0 0 0 0 0 0 0 0 0 0 0 0 0 0 0 0 0.25 0"/>
<feBlend mode="normal" in2="shape" result="effect1_innerShadow_104_864"/>
</filter>
</defs>
</svg>
