<svg width="45" height="45" viewBox="0 0 45 45" fill="none" xmlns="http://www.w3.org/2000/svg">
<path fill-rule="evenodd" clip-rule="evenodd" d="M30.118 12.8801C27.0731 11.5513 22.0062 12.7433 17.6975 17.4321L17.6914 17.4403L30.118 12.8801ZM28.9804 29.0389L28.9839 29.0347C31.3512 26.4583 33.018 23.24 33.4147 20.146L28.9804 29.0389ZM21.1885 33.8724C19.6806 34.2121 18.0915 34.2183 16.6667 33.6246C15.23 33.0293 14.1134 31.878 13.5563 30.174L17.1218 28.3876C17.3797 29.6393 18.0384 30.5614 18.9965 31.0908C19.9188 31.6002 21.0382 31.6984 22.1913 31.489L21.1885 33.8724Z" fill="#FFB994"/>
<path fill-rule="evenodd" clip-rule="evenodd" d="M34.6352 17.7068C34.6351 21.8101 32.4675 26.2196 29.444 29.5044C29.0032 29.983 28.5429 30.4412 28.0643 30.8777L27.3311 32.3516C28.2331 31.615 29.0842 30.8113 29.8778 29.9469C33.4235 26.0895 36.1169 20.5945 35.7131 15.5488L34.6352 17.7068ZM14.0353 18.7807C14.6964 17.77 15.4366 16.8184 16.2478 15.9359C21.8365 9.85401 29.0138 8.54212 32.5216 11.9992L34.411 11.309C30.9225 5.59763 21.6137 6.67674 14.6305 14.2735C12.9822 16.0678 11.6625 18.0173 10.6895 20.0075L14.0353 18.7807ZM22.0197 34.6121C19.942 35.353 17.6092 35.6437 15.5023 34.8909C13.3767 34.1349 11.7181 32.3662 11.2091 29.5314L8.77873 28.3886C9.02557 32.751 11.4063 35.2772 14.3357 36.1607C17.2271 37.0315 20.3926 36.3124 23.0189 35.0812L22.0197 34.6121Z" fill="#FF7F50"/>
<path fill-rule="evenodd" clip-rule="evenodd" d="M21.783 28.0495C20.5583 27.0605 20.8691 24.5851 22.6982 22.5931C24.5259 20.6062 26.8586 20.2098 27.8278 21.4732C28.7411 22.6731 28.173 24.9377 26.6205 26.629C25.0666 28.3173 22.937 28.9811 21.783 28.0495Z" fill="#FF7F50"/>
</svg>
